<?xml version="1.0" standalone="no"?>
<!DOCTYPE svg PUBLIC "-//W3C//DTD SVG 20010904//EN"
 "http://www.w3.org/TR/2001/REC-SVG-20010904/DTD/svg10.dtd">
<svg version="1.0" xmlns="http://www.w3.org/2000/svg"
 width="256.000000pt" height="256.000000pt" viewBox="0 0 256.000000 256.000000"
 preserveAspectRatio="xMidYMid meet">
<metadata>
Created by potrace 1.11, written by Peter Selinger 2001-2013
</metadata>
<g transform="translate(0.000000,256.000000) scale(0.100000,-0.100000)"
fill="#000000" stroke="none">
<path d="M1125 2429 c-476 -60 -877 -436 -981 -919 -25 -117 -25 -343 0 -460
51 -239 165 -442 343 -611 97 -93 175 -147 296 -204 431 -207 944 -125 1291
205 239 227 359 508 359 840 0 333 -120 613 -360 841 -97 93 -175 147 -296
204 -202 97 -424 132 -652 104z m416 -142 c371 -97 656 -387 752 -767 31 -122
31 -358 0 -480 -97 -385 -387 -676 -770 -772 -127 -32 -360 -32 -487 0 -381
96 -666 381 -767 768 -34 128 -34 359 0 487 108 415 415 703 835 783 110 21
318 12 437 -19z"/>
<path d="M989 1520 c-96 -51 -133 -166 -84 -260 7 -14 89 -100 182 -192 127
-126 175 -168 194 -168 19 0 67 43 201 178 175 176 198 207 198 272 0 98 -94
190 -194 190 -64 0 -94 -14 -153 -72 l-51 -50 -49 47 c-26 26 -62 53 -80 61
-45 20 -121 17 -164 -6z"/>
</g>
</svg>
